<?xml version="1.0" standalone="no"?>
<!DOCTYPE svg PUBLIC "-//W3C//DTD SVG 20010904//EN"
 "http://www.w3.org/TR/2001/REC-SVG-20010904/DTD/svg10.dtd">
<svg version="1.0" xmlns="http://www.w3.org/2000/svg"
 width="32.000000pt" height="32.000000pt" viewBox="0 0 32.000000 32.000000"
 preserveAspectRatio="xMidYMid meet">

<g transform="translate(0.000000,32.000000) scale(0.100000,-0.100000)"
fill="#000000" stroke="none">
<path d="M176 279 c-15 -12 -32 -33 -37 -46 -7 -18 -14 -23 -29 -18 -23 7 -27
-10 -5 -23 12 -6 14 -18 9 -49 -5 -34 -11 -42 -34 -46 -29 -6 -43 -27 -34 -52
9 -22 41 -28 73 -12 18 9 34 11 42 6 36 -23 85 -5 108 39 17 33 6 40 -22 14
-24 -23 -52 -28 -76 -13 -10 7 -12 21 -7 55 6 39 11 46 30 46 64 0 105 89 50
110 -35 14 -37 13 -68 -11z m54 -32 c0 -17 -20 -37 -37 -37 -16 0 -17 22 -1
38 16 16 38 15 38 -1z m-125 -187 c-3 -5 -10 -10 -16 -10 -5 0 -9 5 -9 10 0 6
7 10 16 10 8 0 12 -4 9 -10z"/>
</g>
</svg>
